<?xml version="1.0" encoding="utf-8"?>
<!-- Generator: Adobe Illustrator 25.4.1, SVG Export Plug-In . SVG Version: 6.00 Build 0)  -->
<svg version="1.1" id="Capa_12" xmlns="http://www.w3.org/2000/svg" xmlns:xlink="http://www.w3.org/1999/xlink" x="0px" y="0px"
	 viewBox="0 0 24 24" style="enable-background:new 0 0 24 24;" xml:space="preserve">
<style type="text/css">
	.st0{fill:#F2F2F2;}
</style>
<path class="st0" d="M14.2,9.2h-0.6c-0.1,0-0.1,0.1-0.1,0.1v2c0,0-1.6-2.1-1.6-2.1c0,0,0,0-0.1-0.1c0,0,0,0-0.1,0h-0.5
	c-0.1,0-0.1,0.1-0.1,0.1v3.4c0,0.1,0.1,0.1,0.1,0.1h0.6c0.1,0,0.1-0.1,0.1-0.1v-2l1.6,2.1c0,0,0,0,0.1,0c0,0,0,0,0.1,0h0.5
	c0.1,0,0.1-0.1,0.1-0.1V9.4C14.3,9.3,14.3,9.2,14.2,9.2L14.2,9.2z"/>
<path class="st0" d="M9.9,9.2h0.6c0.1,0,0.1,0.1,0.1,0.1v3.4c0,0.1-0.1,0.1-0.1,0.1H9.9c-0.1,0-0.1-0.1-0.1-0.1V9.4
	C9.7,9.3,9.8,9.2,9.9,9.2z"/>
<path class="st0" d="M9.1,12.1H7.6V9.4c0-0.1-0.1-0.1-0.1-0.1H6.9c-0.1,0-0.1,0.1-0.1,0.1v3.4c0,0.1,0.1,0.1,0.1,0.1h2.2
	c0.1,0,0.1-0.1,0.1-0.1v-0.6C9.3,12.1,9.2,12.1,9.1,12.1L9.1,12.1z"/>
<path class="st0" d="M12,0C5.4,0,0,5.4,0,12s5.4,12,12,12s12-5.4,12-12S18.6,0,12,0z M18.1,14.8c-1.6,1.9-5.3,4.2-6.1,4.5
	c-0.8,0.4-0.7-0.2-0.7-0.4c0-0.1,0.1-0.7,0.1-0.7c0-0.2,0.1-0.5,0-0.7c-0.1-0.2-0.4-0.3-0.7-0.4C7,16.6,4.2,14,4.2,10.9
	c0-3.5,3.5-6.3,7.8-6.3s7.8,2.8,7.8,6.3C19.8,12.3,19.2,13.5,18.1,14.8C18.1,14.8,18.1,14.8,18.1,14.8z"/>
<path class="st0" d="M17.2,9.2H15c-0.1,0-0.1,0.1-0.1,0.1v3.4c0,0.1,0.1,0.1,0.1,0.1h2.2c0.1,0,0.1-0.1,0.1-0.1v-0.6
	c0-0.1-0.1-0.1-0.1-0.1h-1.5v-0.6h1.5c0.1,0,0.1-0.1,0.1-0.1v-0.6c0-0.1-0.1-0.1-0.1-0.1h-1.5v-0.6h1.5c0.1,0,0.1-0.1,0.1-0.1V9.4
	C17.3,9.3,17.3,9.2,17.2,9.2z"/>
</svg>
