<?xml version="1.0" encoding="utf-8"?>
<!-- Generator: Adobe Illustrator 25.4.1, SVG Export Plug-In . SVG Version: 6.00 Build 0)  -->
<svg version="1.1" id="Capa_1" xmlns="http://www.w3.org/2000/svg" xmlns:xlink="http://www.w3.org/1999/xlink" x="0px" y="0px"
	 viewBox="0 0 512 512" style="enable-background:new 0 0 512 512;" xml:space="preserve">
<style type="text/css">
	.st0{fill:#F2F2F2;}
</style>
<g id="XMLID_184_">
	<path class="st0" d="M501.3,132c-5.9-22.2-23.2-39.6-45.3-45.6c-39.9-10.8-200-10.8-200-10.8s-160.1,0-200,10.8
		c-22,5.9-39.4,23.4-45.2,45.6C0,172.2,0,256,0,256s0,83.8,10.7,124c5.9,22.2,23.2,39.6,45.3,45.6c39.9,10.8,200,10.8,200,10.8
		s160.1,0,200-10.8c22-5.9,39.4-23.4,45.3-45.6C512,339.8,512,256,512,256S512,172.2,501.3,132z M203.6,332.1V179.9L337.5,256
		L203.6,332.1z"/>
</g>
</svg>
